<?xml version="1.0" encoding="utf-8"?>
<!-- Generator: Adobe Illustrator 25.4.1, SVG Export Plug-In . SVG Version: 6.00 Build 0)  -->
<svg version="1.1" id="Layer_1" xmlns="http://www.w3.org/2000/svg"
	xmlns:xlink="http://www.w3.org/1999/xlink" x="0px" y="0px"
	viewBox="0 0 50 50" style="enable-background:new 0 0 50 50;" xml:space="preserve">
<style type="text/css">
	.st0{fill:#2F90C4;}
	.st1{display:none;}
	.st2{display:inline;fill:#FFFFFF;}
	.st3{display:inline;}
	.st4{fill:#FFFFFF;}
	.st5{display:none;fill:#FFFFFF;}
</style>
<path class="st0" d="M45,50H5c-2.76,0-5-2.24-5-5V5c0-2.76,2.24-5,5-5h40c2.76,0,5,2.24,5,5v40C50,47.76,47.76,50,45,50z"/>
<g id="Medium" class="st1">
	<path class="st2" d="M2.02,24.98c0.01-7.17,5.85-12.98,13.04-12.97c7.16,0.02,12.97,5.87,12.94,13.06
		c-0.02,7.12-5.86,12.92-12.99,12.92C7.84,37.99,2.01,32.15,2.02,24.98z"/>
	<path class="st2" d="M41.99,25.06c-0.04,2.86-0.5,5.62-1.8,8.2c-0.45,0.9-1.01,1.72-1.75,2.41c-1.88,1.78-4.08,1.77-5.94-0.05
		c-1.65-1.62-2.46-3.68-2.96-5.88c-0.94-4.13-0.74-8.19,0.85-12.15c0.47-1.18,1.13-2.26,2.04-3.16c1.91-1.89,4.18-1.91,6.08-0.02
		c1.75,1.73,2.52,3.95,3.03,6.28C41.86,22.12,42.02,23.58,41.99,25.06z"/>
	<path class="st2" d="M42.99,24.93c0.05-2.89,0.19-5.78,0.98-8.59c0.15-0.54,0.35-1.08,0.62-1.56c0.58-1.04,1.22-1.02,1.81,0.03
		c0.26,0.46,0.47,0.96,0.59,1.47c1.37,5.79,1.36,11.59,0.02,17.38c-0.14,0.62-0.36,1.21-0.72,1.74c-0.55,0.8-1.1,0.8-1.62-0.03
		c-0.81-1.3-1.03-2.8-1.25-4.27C43.11,29.05,42.95,27,42.99,24.93z"/>
</g>
<g id="codesandbox" class="st1">
	<path class="st2" d="M25,12.01c3.63,0,7.26,0,10.89,0c1.13,0,1.24,0.12,1.24,1.33c0,7.77,0,15.54,0,23.32
		c0,1.21-0.11,1.33-1.24,1.33c-7.26,0-14.52,0-21.79,0c-1.13,0-1.24-0.12-1.24-1.33c0-7.77,0-15.54,0-23.32
		c0-1.21,0.12-1.33,1.24-1.33C17.74,12.01,21.37,12.01,25,12.01z"/>
	<path class="st3" d="M24.98,35.34c-2.78,0-5.56,0-8.34,0c-1.19,0-1.3-0.11-1.3-1.35c0-6.01,0-12.01,0-18.02
		c0-1.19,0.12-1.31,1.26-1.31c5.61,0,11.23,0,16.84,0c1.09,0,1.22,0.13,1.22,1.27c0,6.06,0,12.12,0,18.19
		c0,1.09-0.14,1.22-1.18,1.23C30.64,35.35,27.81,35.34,24.98,35.34z"/>
</g>
<g id="mail">
	<path class="st4" d="M41.22,15.75c-0.18-2.5-1.28-3.74-3.81-3.74c-4.15-0.01-8.29,0-12.44,0c-4.21,0-8.42-0.02-12.63,0
		c-2.26,0.01-3.53,1.3-3.55,3.56c-0.01,0.55,0.04,1.11-0.02,1.65c-0.06,0.63,0.16,0.98,0.71,1.32c4.95,3.06,9.88,6.15,14.8,9.26
		c0.56,0.36,0.92,0.32,1.46-0.02c4.46-2.81,8.89-5.65,13.43-8.32C40.72,18.55,41.36,17.57,41.22,15.75z M37.54,16.8
		c-4.05,2.49-8.08,5-12.11,7.53c-0.38,0.23-0.62,0.15-0.95-0.06c-3.96-2.5-7.93-5-11.93-7.46c-0.57-0.35-0.65-0.79-0.53-1.3
		c0.12-0.47,0.6-0.23,0.91-0.24c4.05-0.02,8.1-0.01,12.16-0.01c4.02,0,8.04-0.01,12.05,0.01c0.27,0,0.72-0.23,0.8,0.25
		C38.01,15.98,38.08,16.47,37.54,16.8z"/>
	<path class="st4" d="M8.94,22.02c0.92,0.57,1.84,1.15,2.77,1.71c0.4,0.24,0.28,0.62,0.28,0.96c0.01,3.08,0.02,6.16-0.01,9.24
		c-0.01,0.63,0.15,0.81,0.8,0.81c8.14-0.02,16.27-0.02,24.41,0c0.66,0,0.8-0.21,0.79-0.82c-0.03-3.05,0-6.1-0.03-9.14
		c-0.01-0.59,0.15-0.94,0.68-1.23c0.82-0.44,1.59-0.97,2.41-1.48c0.22,0.26,0.13,0.52,0.13,0.76c0.01,3.83,0.01,7.65,0,11.48
		c0,2.4-1.27,3.67-3.65,3.67c-8.36,0.01-16.73,0.01-25.09,0c-2.38,0-3.64-1.27-3.65-3.67c-0.01-3.83,0-7.65,0-11.48
		C8.79,22.59,8.7,22.33,8.94,22.02z"/>
</g>
<path id="discord" class="st5" d="M37.99,15.26c0,0-3.72-2.91-8.12-3.25l-0.4,0.79c3.98,0.97,5.8,2.37,7.7,4.08
	c-3.28-1.68-6.53-3.25-12.18-3.25s-8.89,1.57-12.18,3.25c1.9-1.71,4.07-3.26,7.7-4.08l-0.4-0.79c-4.61,0.44-8.12,3.25-8.12,3.25
	s-4.16,6.03-4.87,17.86c4.19,4.83,10.56,4.87,10.56,4.87l1.33-1.77c-2.26-0.79-4.81-2.19-7.01-4.72c2.63,1.99,6.6,4.06,12.99,4.06
	s10.36-2.07,12.99-4.06c-2.2,2.53-4.76,3.94-7.01,4.72l1.33,1.77c0,0,6.36-0.04,10.56-4.87C42.15,21.29,37.99,15.26,37.99,15.26z
	 M19.72,29.87c-1.57,0-2.84-1.45-2.84-3.25c0-1.79,1.27-3.25,2.84-3.25c1.57,0,2.84,1.45,2.84,3.25
	C22.56,28.42,21.29,29.87,19.72,29.87z M30.28,29.87c-1.57,0-2.84-1.45-2.84-3.25c0-1.79,1.27-3.25,2.84-3.25
	c1.57,0,2.84,1.45,2.84,3.25C33.12,28.42,31.85,29.87,30.28,29.87z"/>
</svg>
